<?xml version="1.0" encoding="UTF-8"?>
<svg width="400" height="400" viewBox="0 0 400 400" xmlns="http://www.w3.org/2000/svg">
  <defs>
    <linearGradient id="g1" x1="0%" y1="0%" x2="100%" y2="100%">
      <stop offset="0%" stop-color="#a855f7"/>
      <stop offset="50%" stop-color="#c084fc"/>
      <stop offset="100%" stop-color="#7c3aed"/>
    </linearGradient>
    <filter id="glow">
      <feGaussianBlur stdDeviation="2.5" result="blur"/>
      <feMerge><feMergeNode in="blur"/><feMergeNode in="SourceGraphic"/></feMerge>
    </filter>
  </defs>
  <rect width="400" height="400" fill="#0a0a0a" rx="40"/>
  <g transform="translate(15.06, 25.00) scale(0.238, 0.238) translate(-163.5, -101.4)"
     stroke="url(#g1)" stroke-width="22" fill="none"
     stroke-linecap="round" stroke-linejoin="round" filter="url(#glow)">
    <path d="m 1088.7898,2607.5964 c -17.1403,12.158 -34.2805,24.3159 -48.5649,34.2909 -14.2843,9.975 -25.7123,17.7668 -36.448,24.8662 -10.73566,7.0994 -20.77843,13.506 -30.8215,19.8262 -10.04307,6.3202 -20.08586,12.5537 -30.64837,18.9604 -10.56252,6.4068 -21.6442,12.9866 -34.31713,20.2064 -12.67293,7.2199 -26.93609,15.0792 -40.96189,22.2653 -14.0258,7.186 -27.81286,13.698 -42.58523,19.9844 -14.77237,6.2864 -30.52911,12.3467 -46.28633,18.0608 -15.75722,5.7142 -31.51398,11.0818 -48.31014,15.8436 -16.79617,4.7618 -34.63074,8.9175 -50.78831,12.1547 -16.15757,3.2372 -30.63694,5.5559 -43.97012,6.9411 -13.33318,1.3853 -25.51878,1.837 -35.94065,2.0629 -10.42188,0.2259 -19.07944,0.2259 -29.64199,-0.5533 -10.56255,-0.7792 -23.02943,-2.3376 -36.70879,-5.1947 -13.67936,-2.8571 -28.57035,-7.0127 -41.47047,-11.3416 -12.90012,-4.3289 -23.80863,-8.8309 -33.41879,-13.4195 -9.61016,-4.5886 -17.92143,-9.2637 -26.31951,-14.1987 -8.39807,-4.9349 -16.88251,-10.1295 -27.91795,-19.5985 -11.03544,-9.4691 -24.62124,-23.2121 -34.5171,-35.2551 -9.89586,-12.043 -16.10126,-22.3853 -21.82667,-32.8388 -5.72541,-10.4535 -10.97048,-21.0175 -15.47693,-31.8034 -4.50645,-10.786 -8.27404,-21.7933 -11.19214,-33.0963 -2.91809,-11.3031 -4.98658,-22.9014 -6.31634,-34.2783 -1.32976,-11.377 -1.92075,-22.5319 -1.73606,-32.8007 0.1847,-10.2688 1.14506,-19.6508 2.77036,-29.9566 1.62529,-10.3058 3.91538,-21.5346 6.87044,-32.5052 2.95506,-10.9707 6.57488,-21.6824 11.03717,-32.3754 4.46229,-10.6929 9.76666,-21.3662 15.33122,-31.2539 5.56456,-9.8876 11.38862,-18.9884 17.69868,-27.5029 6.31007,-8.5145 13.1054,-16.4417 21.31168,-24.4573 8.20629,-8.0157 18.35003,-16.5633 27.82303,-23.7975 9.47299,-7.2342 20.47288,-14.8332 32.06097,-21.3047 11.5881,-6.4714 24.335,-12.2098 37.04313,-16.5982 12.70814,-4.3885 25.37626,-7.4266 37.10347,-9.5456 11.72721,-2.1189 22.51261,-3.3186 33.77886,-3.8553 11.26625,-0.5367 23.012,-0.4104 32.87459,-0.032 9.86258,0.3782 17.84098,1.0084 25.81963,2.0253 7.97865,1.0169 15.95705,2.4205 25.22854,4.3413 9.27149,1.9208 19.83547,4.3586 31.91426,7.4614 12.07879,3.1028 25.67161,6.8704 38.89547,10.8228 13.22387,3.9524 26.07795,8.0894 39.30182,12.8913 13.22387,4.802 26.81671,10.2687 41.18565,16.4374 14.36895,6.1686 29.51315,13.0389 43.84515,19.9094 14.332,6.8705 27.85096,13.7408 41.40726,20.6113 13.5563,6.8705 27.14914,13.7408 40.37299,20.8698 13.22384,7.1291 26.07793,14.5165 38.52607,21.6456 12.44815,7.1291 24.48963,13.9994 36.30985,20.4635 11.82022,6.4642 23.41842,12.5219 36.53152,19.1708 13.1131,6.6489 27.7401,13.8885 41.0748,20.0572 13.3347,6.1686 25.3761,11.2659 36.3836,15.6985 11.0076,4.4325 20.9807,8.2001 30.2521,11.4507 9.2715,3.2505 17.8409,5.9839 27.5557,8.7912 9.7147,2.8073 20.5742,5.6884 32.3206,8.3848 11.7463,2.6965 24.3787,5.2082 34.6105,6.9074 10.2319,1.6991 18.0626,2.5856 25.5979,3.0289 7.5354,0.4432 14.7751,0.4432 22.0519,0.3324 7.2768,-0.1108 14.5904,-0.3324 21.6455,-0.7757 7.0552,-0.4432 13.8516,-1.1081 21.978,-2.4748 8.1265,-1.3667 17.5823,-3.4352 25.8565,-5.2821 8.2741,-1.8469 15.366,-3.4721 23.2708,-5.6515 7.9048,-2.1794 16.6219,-4.9127 24.6375,-7.8308 8.0156,-2.9181 15.3291,-6.0208 22.569,-9.5669 7.2399,-3.5461 14.4056,-7.5353 21.4608,-11.7093 7.0552,-4.174 13.9994,-8.5326 20.796,-13.4823 6.7966,-4.9497 13.4453,-10.4903 19.3554,-15.9572 5.9101,-5.4668 11.0813,-10.8596 16.2896,-16.7327 5.2082,-5.8732 10.4533,-12.2264 15.5138,-19.3924 5.0605,-7.166 9.9362,-15.1444 14.9598,-24.6375 5.0236,-9.4932 10.1948,-20.5004 14.2949,-32.2098 4.1002,-11.7094 7.129,-24.1203 8.8651,-35.5342 1.736,-11.4138 2.1793,-21.8301 2.2162,-32.3944 0.037,-10.5643 -0.3324,-21.276 -1.4036,-31.434 -1.0712,-10.158 -2.8442,-19.7616 -5.2821,-29.2178 -2.4379,-9.4562 -5.5406,-18.7643 -8.5696,-26.8168 -3.0289,-8.0525 -5.9839,-14.8489 -10.2318,-22.7537 -4.2479,-7.9048 -9.7884,-16.9174 -15.8094,-25.3763 -6.0209,-8.4588 -12.5218,-16.3633 -20.1311,-24.4897 -7.6093,-8.1264 -16.3264,-16.4742 -24.97,-23.6033 -8.6435,-7.129 -17.2129,-13.039 -26.8537,-18.1733 -9.6409,-5.1344 -20.3526,-9.493 -31.9512,-13.5931 -11.5986,-4.1001 -24.0833,-7.9416 -38.009,-11.2291 -13.9257,-3.2874 -29.2916,-6.0208 -43.2542,-7.7938 -13.9626,-1.7731 -26.5212,-2.5857 -41.1487,-2.8073 -14.6275,-0.2216 -31.3231,0.1477 -45.7659,0.9973 -14.4428,0.8496 -26.632,2.1793 -37.5287,3.6569 -10.8968,1.4775 -20.5004,3.1027 -30.6953,5.1343 -10.195,2.0317 -20.9806,4.4695 -31.1016,7.0182 -10.1211,2.5488 -19.577,5.2082 -29.772,8.3479 -10.1949,3.1398 -21.1282,6.7596 -35.5341,12.1157 -14.406,5.356 -32.2835,12.4479 -48.056,19.1707 -15.7726,6.7227 -29.43933,13.0759 -44.32543,20.4635 -14.88609,7.3877 -30.99063,15.8093 -44.50997,23.0861 -13.51933,7.2768 -24.45271,13.4084 -35.57109,19.7987 -11.11838,6.3903 -22.42113,13.039 -34.13052,20.1311 -11.70939,7.0921 -23.82476,14.6273 -33.42866,20.6851 -9.60389,6.0579 -16.6958,10.6381 -25.89343,16.6221 -9.19763,5.984 -20.50037,13.3714 -31.80332,20.7589" transform="translate(3.6824353,-1984.8326)"/>
    <path d="m 899.12067,2730.7493 c -21.67617,9.6635 -43.35239,19.327 -61.48262,26.7297 -18.13023,7.4027 -32.71393,12.5444 -53.28136,18.5744 -20.56744,6.03 -47.11724,12.9479 -66.8899,17.3419 -19.77265,4.3939 -32.7671,6.2636 -46.18265,7.6659 -13.41554,1.4023 -27.25136,2.3371 -39.21781,2.9448 -11.96645,0.6077 -22.06286,0.8881 -31.13119,0.7946 -9.06833,-0.093 -17.10806,-0.5609 -23.60547,-1.0751 -6.49741,-0.5141 -11.45212,-1.0751 -17.52885,-2.01 -6.07673,-0.9349 -13.2751,-2.2437 -22.06299,-4.4874 -8.7879,-2.2437 -19.16478,-5.4222 -30.80405,-9.7694 -11.63928,-4.3472 -24.54022,-9.8628 -36.4132,-15.9863 -11.87298,-6.1235 -22.71725,-12.8544 -32.58024,-20.0063 -9.86298,-7.1518 -18.74407,-14.7241 -26.45683,-21.8292 -7.71276,-7.1051 -14.25671,-13.7425 -20.56716,-21.1748 -6.31044,-7.4323 -12.38698,-15.659 -17.85603,-24.3534 -5.46905,-8.6944 -10.3303,-17.856 -14.25678,-26.1764 -3.92648,-8.3204 -6.91804,-15.7993 -9.76942,-23.699 -2.85138,-7.8998 -5.56242,-16.2199 -7.57241,-24.8676 -2.00999,-8.6476 -3.31879,-17.6222 -3.92645,-27.0645 -0.60767,-9.4423 -0.51419,-19.3518 -0.14023,-28.5603 0.37395,-9.2086 1.02834,-17.7157 2.38393,-26.6906 1.35559,-8.9749 3.41226,-18.4169 5.98318,-27.532 2.57093,-9.115 5.65597,-17.9027 8.6476,-25.1947 2.99162,-7.2921 5.88963,-13.0881 10.09662,-20.1932 4.20699,-7.1052 9.72257,-15.5188 15.93954,-23.7925 6.21696,-8.2737 13.13487,-16.4069 20.42695,-24.0262 7.29209,-7.6193 14.95784,-14.7241 22.90433,-21.1748 7.9465,-6.4507 16.17322,-12.2468 24.72737,-17.5756 8.55416,-5.3288 17.43524,-10.1901 26.36336,-14.7242 8.92813,-4.5342 17.90271,-8.741 26.08291,-11.9663 8.18021,-3.2253 15.56553,-5.469 23.41853,-7.2453 7.85299,-1.7763 16.17318,-3.0851 23.8392,-4.0199 7.66602,-0.9349 14.67741,-1.4958 21.73576,-1.8698 7.05835,-0.3739 14.16323,-0.5609 22.15647,-0.4207 7.99323,0.1403 16.87433,0.6077 25.80244,1.4024 8.9281,0.7947 17.90269,1.9165 26.97103,3.5058 9.06834,1.5892 18.2299,3.6459 29.07454,6.3103 10.84465,2.6644 23.37164,5.9364 35.19787,9.4422 11.82624,3.5058 22.95101,7.2452 34.35654,11.2652 11.40553,4.02 23.09121,8.3204 33.14114,12.2936 10.04993,3.9733 18.46363,7.6192 27.81244,11.7794 9.34881,4.1602 19.63221,8.8345 32.48684,14.9112 12.85462,6.0767 28.27972,13.5555 39.21778,18.8843 10.93806,5.3288 17.38854,8.5073 25.38177,12.6676 7.99323,4.1602 17.52872,9.3019 27.71893,15.3786 10.19021,6.0768 21.03451,13.0882 32.3933,19.8193 11.35879,6.7311 23.23143,13.1816 35.24468,19.7258 12.01322,6.5442 24.16622,13.1816 35.33812,19.0713 11.1718,5.8898 21.3617,11.0315 31.1312,15.6592 9.7695,4.6276 19.118,8.741 28.5135,12.6674 9.3956,3.9265 18.8376,7.6659 28.0461,11.2185 9.2086,3.5525 18.1832,6.918 27.3451,10.0498 9.1618,3.1319 18.5103,6.0299 28.233,8.7411 9.7228,2.7111 19.8192,5.2352 30.4301,7.5724 10.6109,2.3372 21.7357,4.4874 31.2247,5.9832 9.489,1.4958 17.3418,2.3372 28.1864,2.8046 10.8447,0.4675 24.6805,0.5609 36.1795,0.2805 11.499,-0.2805 20.6606,-0.9349 30.3834,-2.197 9.7227,-1.2621 20.0061,-3.1318 29.6354,-5.282 9.6292,-2.1502 18.6038,-4.5808 28.794,-8.0867 10.1902,-3.5058 21.5954,-8.0866 32.3933,-13.0414 10.7978,-4.9549 20.9877,-10.2835 30.617,-15.8928 9.6293,-5.6093 18.6973,-11.4989 28.0461,-18.8845 9.3489,-7.3855 18.9778,-16.2666 27.158,-24.5403 8.1802,-8.2737 14.9111,-15.9395 20.9878,-23.7925 6.0768,-7.853 11.499,-15.8928 16.2201,-23.7457 4.7211,-7.853 8.741,-15.5188 12.4337,-23.4739 3.6928,-7.955 7.0582,-16.1986 9.8957,-24.5328 2.8376,-8.3342 5.1468,-16.7578 6.7829,-24.8828 1.6361,-8.125 2.5987,-15.9505 3.0801,-24.7247 0.4813,-8.7743 0.4813,-18.4968 0.3411,-27.051 -0.1403,-8.5541 -0.4207,-15.9394 -1.1686,-23.512 -0.748,-7.5725 -1.9633,-15.3317 -3.6928,-23.138 -1.7296,-7.8063 -3.9732,-15.659 -6.4974,-23.5588 -2.5242,-7.8997 -5.3287,-15.8459 -8.4138,-23.325 -3.0851,-7.479 -6.4506,-14.4904 -10.4238,-21.7825 -3.9733,-7.2921 -8.5541,-14.8644 -13.4622,-22.1097 -4.9081,-7.2453 -10.1433,-14.1632 -17.3887,-21.9227 -7.2453,-7.7596 -16.5003,-16.3602 -25.9894,-24.3534 -9.489,-7.9932 -19.2115,-15.3786 -27.9058,-21.1281 -8.6944,-5.7495 -16.3602,-9.8628 -24.6806,-13.3686 -8.3205,-3.5058 -17.2951,-6.4039 -27.2516,-9.4422 -9.9565,-3.0384 -20.8943,-6.2169 -31.4584,-8.7878 -10.5641,-2.5709 -20.754,-4.5341 -30.6638,-6.1234 -9.9097,-1.5893 -19.5387,-2.8046 -28.981,-3.5525 -9.4423,-0.7479 -18.6973,-1.0283 -29.7289,-1.0283 -11.0316,0 -23.8391,0.2804 -35.2914,0.8414 -11.4522,0.5609 -21.5487,1.4022 -31.7389,2.5241 -10.1902,1.1218 -20.4735,2.5241 -32.627,4.8613 -12.1535,2.3372 -26.1762,5.6092 -39.9657,9.2085 -13.7895,3.5993 -27.3449,7.5257 -40.4799,11.9197 -13.1351,4.3939 -25.8491,9.2551 -36.8339,13.6491 -10.9849,4.3939 -20.2399,8.3203 -30.0562,12.761 -9.8162,4.4407 -20.1931,9.3954 -29.4951,14.0698 -9.3021,4.6744 -17.52878,9.0682 -33.14137,17.9944 -15.61258,8.9262 -38.60996,22.3842 -61.60778,35.8424" transform="translate(3.6824353,-1984.8326)"/>
    <path d="m 1184.6842,2543.0769 c 9.5008,-5.6159 19.0017,-11.2318 27.9046,-16.7171 8.9028,-5.4854 17.2074,-10.8401 35.3642,-22.3392 18.1569,-11.4991 46.1647,-29.1418 66.05,-41.3818 19.8853,-12.2399 31.6471,-19.0764 40.9097,-24.3326 9.2627,-5.2562 16.0258,-8.9318 22.8993,-12.7913 6.8735,-3.8594 13.857,-7.9025 21.0246,-11.7252 7.1676,-3.8227 14.5187,-7.4248 22.4582,-11.1372 7.9394,-3.7124 16.4667,-7.535 25.4353,-11.0269 8.9687,-3.4919 18.3781,-6.6528 26.4646,-9.0788 8.0865,-2.4259 14.8495,-4.1167 22.4581,-5.8075 7.6087,-1.6908 16.0625,-3.3816 24.4798,-4.7048 8.4173,-1.3233 16.7975,-2.2789 25.178,-3.2346" transform="translate(3.6824353,-1984.8326)"/>
    <path d="m 691.07182,2343.0826 c -11.96942,8.337 -23.93886,16.6741 -34.84589,23.9544 -10.90703,7.2803 -20.75124,13.5036 -29.29448,19.1614 -8.54324,5.6578 -15.78494,10.7496 -22.744,15.5022 -6.95907,4.7525 -13.63504,9.1654 -21.04673,13.8614 -7.41169,4.6959 -15.55864,9.6746 -22.80058,13.8614 -7.24194,4.1867 -13.57846,7.5813 -20.65067,11.5417 -7.0722,3.9604 -14.87971,8.4865 -22.85718,13.0127 -7.97748,4.5263 -16.1244,9.0523 -23.76241,12.9562 -7.63801,3.9038 -14.76658,7.1852 -22.23484,10.4668 -7.46825,3.2815 -15.27574,6.5629 -23.02688,9.4484 -7.75114,2.8854 -15.44549,5.3748 -23.81899,7.8076 -8.3735,2.4329 -17.42567,4.8091 -26.19522,6.8458 -8.76955,2.0368 -17.25596,3.7341 -26.22214,4.9788 -8.96619,1.2447 -18.41162,2.0368 -27.85722,2.8289" transform="translate(3.6824353,-1984.8326)"/>
    <path d="m 924.2535,2424.835 c -9.95489,-10.0646 -19.90955,-20.129 -30.91025,-30.8344 -11.00071,-10.7054 -23.04638,-22.0507 -33.76574,-32.0884 -10.71936,-10.0377 -20.11164,-18.767 -29.61471,-27.5518 -9.50306,-8.7848 -19.11634,-17.6246 -27.34862,-24.9728 -8.23227,-7.3483 -15.08312,-13.2047 -22.43143,-19.3375 -7.3483,-6.1328 -15.19365,-12.5417 -23.53644,-18.9507 -8.34279,-6.409 -17.1826,-12.8179 -26.18842,-19.2822 -9.00581,-6.4643 -18.17708,-12.9836 -27.73541,-19.1717 -9.55832,-6.188 -19.5031,-12.0444 -29.72442,-18.1772 -10.22132,-6.1328 -20.71857,-12.5416 -31.4924,-18.5639 -10.77384,-6.0223 -21.82361,-11.6576 -35.02845,-17.3484 -13.20485,-5.6908 -28.564,-11.4367 -41.05055,-15.912 -12.48655,-4.4753 -22.09984,-7.6797 -32.32117,-10.5527 -10.22133,-2.873 -21.05007,-5.4144 -32.04491,-7.2929 -10.99483,-1.8785 -22.15506,-3.094 -32.92888,-3.8123 -10.77382,-0.7182 -21.16058,-0.9392 -31.6029,-0.7734 -10.44233,0.1657 -20.93959,0.7182 -31.32666,1.8232 -10.38706,1.105 -20.66333,2.7625 -30.22164,4.641 -9.55831,1.8785 -18.39809,3.9779 -27.18291,6.6299 -8.78482,2.6521 -17.51411,5.8565 -26.85143,9.6688 -9.33733,3.8123 -19.28209,8.2322 -28.01163,12.376 -8.72954,4.1437 -16.24338,8.0111 -23.42593,12.1549 -7.18255,4.1438 -14.03339,8.5637 -21.54745,13.923 -7.51406,5.3593 -15.69085,11.6576 -23.48115,18.2324 -7.7903,6.5748 -15.19365,13.4257 -21.71319,20.0005 -6.51954,6.5748 -12.15488,12.8731 -17.40367,19.6137 -5.24879,6.7405 -10.11071,13.9229 -14.69649,21.6027 -4.58577,7.6798 -8.89515,15.8566 -12.81792,24.6967 -3.92276,8.84 -7.45868,18.3428 -9.94494,27.0171 -2.48626,8.6743 -3.92273,16.5196 -5.02774,23.2049 -1.10501,6.6853 -1.87849,12.2102 -2.26524,17.8457 -0.38674,5.6355 -0.38674,11.3814 -0.11048,16.8512 0.27625,5.4698 0.82874,10.6632 1.82325,15.8567 0.9945,5.1935 2.43097,10.3869 4.69624,16.9065 2.26527,6.5195 5.3592,14.3648 8.56374,22.0999 3.20453,7.7351 6.51944,15.3594 10.22121,23.2602 3.70178,7.9008 7.79018,16.0776 11.93396,23.9232 4.14378,7.8455 8.34268,15.3593 12.70747,22.7629 4.36478,7.4035 8.89521,14.6964 13.42574,21.8789 4.53053,7.1826 9.0609,14.2544 14.08869,21.7132 5.02778,7.4588 10.55265,15.3041 16.13294,22.8182 5.5803,7.514 11.2157,14.6964 18.28776,23.0944 7.07206,8.3981 15.58037,18.0114 23.42591,26.8514 7.84554,8.8401 15.02786,16.9064 22.54191,25.1387 7.51404,8.2323 15.35936,16.6301 22.76291,24.3099 7.40356,7.6798 14.36488,14.6411 21.16068,21.3817 6.7958,6.7405 13.42566,13.2599 21.32647,20.4425 7.90081,7.1825 17.07209,15.0278 26.24358,22.8733" transform="translate(3.6824353,-1984.8326)"/>
    <path d="m 941.8805,2454.645 c 6.34525,7.6486 12.69033,15.297 19.67528,23.4719 6.98494,8.1748 14.60876,16.8749 22.25078,25.6638 7.64201,8.7889 15.30143,17.6657 25.12064,27.9985 9.8191,10.3328 21.7974,22.1209 32.8254,32.4834 11.0279,10.3625 21.1049,19.2987 31.4674,27.9499 10.3625,8.6513 21.0098,17.017 30.5167,24.2423 9.5069,7.2252 17.8727,13.3094 29.8513,21.2001 11.9787,7.8907 27.5695,17.5874 40.1186,25.0979 12.549,7.5104 22.0556,12.8341 30.897,17.6826 8.8414,4.8485 17.017,9.2215 27.0943,14.2601 10.0773,5.0387 22.0556,10.7426 32.9885,15.5911 10.9329,4.8485 20.8198,8.8413 29.9464,12.1687 9.1265,3.3273 17.4923,5.9892 25.8584,8.461 8.366,2.4718 16.7318,4.7534 25.0028,6.94 8.271,2.1865 16.4466,4.278 24.5275,6.0843 8.0808,1.8063 16.0663,3.3273 24.4323,4.5632 8.3661,1.2359 17.1122,2.1866 25.5733,2.662 8.4611,0.4753 16.6368,0.4753 26.8642,0.228 10.2275,-0.2473 22.5061,-0.7419 33.5449,-1.6821 11.0389,-0.9401 20.8373,-2.3257 30.834,-4.4043 9.9968,-2.0785 20.1911,-4.8498 29.6929,-7.8191 9.5019,-2.9693 18.3106,-6.1365 27.8125,-10.0956 9.5018,-3.9591 19.6961,-8.7098 29.6928,-14.0546 9.9967,-5.3448 19.7952,-11.2833 28.8516,-17.4693 9.0564,-6.1861 17.3703,-12.6195 24.9916,-19.152 7.6212,-6.5325 14.5494,-13.1638 21.0324,-19.9437 6.483,-6.78 12.5205,-13.7082 20.7841,-24.846 8.2635,-11.1379 18.0687,-25.4838 25.7846,-39.0589 7.716,-13.5751 11.2459,-22.5291 14.5729,-31.6504 3.327,-9.1212 5.7758,-16.6966 7.5547,-26.0071 1.7788,-9.3106 2.8876,-20.3565 3.1767,-29.4391 0.2892,-9.0826 -0.2281,-16.0267 -1.0872,-21.9625 -0.859,-5.9358 -2.0468,-10.6866 -3.3335,-15.0416 -1.2867,-4.355 -2.6723,-8.314 -4.4539,-12.5205 -1.7816,-4.2066 -3.959,-8.6604 -7.5222,-14.8465 -3.5632,-6.1861 -8.512,-14.1041 -13.3618,-21.7748 -4.8499,-7.6707 -9.6007,-15.0938 -14.3516,-22.3686 -4.7509,-7.2749 -9.5017,-14.4011 -14.5496,-21.9233 -5.0478,-7.5223 -10.3924,-15.4403 -15.7867,-23.012 -5.3942,-7.5718 -10.8378,-14.7969 -16.1826,-22.3192 -5.3448,-7.5223 -10.5904,-15.3413 -15.2424,-22.3192 -4.6519,-6.9779 -8.7099,-13.1143 -13.4113,-19.9437 -4.7014,-6.8295 -10.046,-14.3515 -14.9454,-21.1315 -4.8994,-6.7799 -9.3532,-12.8173 -14.5495,-19.5973 -5.1964,-6.7799 -11.1348,-14.302 -16.7765,-21.2799 -5.6417,-6.9779 -10.9863,-13.4111 -15.9847,-19.2508 -4.9984,-5.8397 -9.6501,-11.0853 -14.7475,-16.4302 -5.0974,-5.3448 -10.6398,-10.7882 -17.5319,-17.4741 -6.8921,-6.6859 -15.1332,-14.6137 -23.3744,-22.5416" transform="translate(3.6824353,-1984.8326)"/>
    <path d="m 918.42578,2421.8316 c -21.40511,-17.0261 -42.81018,-34.0522 -63.19487,-48.5799 -20.38468,-14.5277 -39.74815,-26.5566 -55.81148,-36.1652 -16.06332,-9.6087 -28.82562,-16.7967 -44.7423,-25.2318 -15.91669,-8.4351 -34.98677,-18.1169 -50.31662,-25.525 -15.32985,-7.4082 -26.91862,-12.5425 -39.09451,-17.3835 -12.17589,-4.841 -24.9382,-9.3884 -38.80111,-13.496 -13.86291,-4.1075 -28.82559,-7.7748 -43.78873,-11.0755 -14.96313,-3.3007 -29.92583,-6.2346 -44.37551,-8.1416 -14.44969,-1.9071 -28.38553,-2.7872 -42.98193,-3.2273 -14.5964,-0.4401 -29.85247,-0.4401 -43.93541,0.5868 -14.08294,1.0269 -26.99194,3.0806 -40.04801,5.8678 -13.05607,2.7873 -26.25843,6.3079 -36.67393,9.6819 -10.41549,3.3741 -18.04351,6.6013 -26.03853,10.6355 -7.99503,4.0342 -16.35654,8.8751 -25.74518,15.2564 -9.38864,6.3814 -19.80383,14.3028 -28.75235,22.1511 -8.94852,7.8483 -16.42991,15.6231 -22.51783,22.4445 -6.08791,6.8214 -10.78206,12.6891 -15.10964,18.8504 -4.32757,6.1613 -8.28829,12.6158 -12.89117,20.0929 -4.60287,7.4772 -9.43069,15.3009 -15.18325,29.1962 -5.75257,13.8954 -10.57562,29.2604 -15.00058,45.8616 -4.42496,16.6012 -8.02345,33.5654 -8.37223,55.7066 -0.34878,22.1413 2.94995,42.404 5.45454,57.7886" transform="translate(3.6824353,-1984.8326)"/>
    <path d="m 948.85136,2457.3048 c 6.72448,6.8465 13.44884,13.6929 19.96642,19.9108 6.51757,6.2179 12.82787,11.8069 18.26798,16.4743 5.4401,4.6674 10.00972,8.413 15.08314,12.582 5.0734,4.1689 10.6502,8.7608 16.1463,13.2669 5.4961,4.5062 10.9109,8.926 17.9618,14.1587 7.0509,5.2327 15.7373,11.2779 23.4591,16.6612 7.7218,5.3832 14.4771,10.1032 25.059,17.0116 10.5818,6.9083 24.9885,16.0039 40.3237,24.2304 15.3351,8.2266 31.5902,15.5802 47.7703,22.4212 16.1801,6.8409 32.2488,13.1541 43.7064,17.4777 11.4577,4.3235 18.2747,6.6458 25.7286,8.9307 7.454,2.2848 15.5445,4.5322 24.3843,6.7422 8.8399,2.2099 18.4286,4.3823 26.6317,6.0304 8.203,1.6481 15.02,2.7718 22.4739,3.8581 7.454,1.0862 15.5445,2.135 23.4853,2.7343 7.9409,0.5993 15.7318,0.7492 22.961,0.7492 7.2292,0 13.8963,-0.1499 21.1255,-0.5244 7.2292,-0.3746 15.02,-0.9739 22.2867,-1.9478 7.2666,-0.9739 14.0087,-2.3223 20.5637,-3.8206 6.555,-1.4982 12.9225,-3.1463 19.44,-4.9068 6.5175,-1.7605 13.1846,-3.6333 19.2152,-5.5061 6.0306,-1.8729 11.4242,-3.7457 16.6308,-5.8433 5.2065,-2.0976 10.2256,-4.4198 15.3572,-6.8545 5.1316,-2.4347 10.3754,-4.9817 15.02,-7.4539 4.6447,-2.4722 8.69,-4.8694 13.8965,-8.5401 5.2065,-3.6708 11.574,-8.615 17.4548,-13.2971 5.8807,-4.6822 11.2744,-9.1019 15.9565,-13.0724 4.6821,-3.9704 8.6524,-7.4913 12.9974,-11.5741 4.3451,-4.0828 9.0645,-8.7274 13.8215,-13.8215 4.7571,-5.0942 9.5514,-10.6376 13.859,-15.7317 4.3075,-5.0942 8.128,-9.7388 11.6596,-14.394 3.5315,-4.6553 6.7739,-9.3209 10.2199,-14.5275 3.4461,-5.2065 7.0956,-10.9536 10.7933,-17.3481 3.6976,-6.3946 7.4432,-13.4363 11.0017,-21.115 3.5584,-7.6787 6.9294,-15.9939 9.9005,-23.9786 2.9712,-7.9847 5.5422,-15.6383 7.8703,-23.3107 2.328,-7.6724 4.4128,-15.3627 6.1796,-22.2047 1.7669,-6.842 3.2156,-12.8349 4.4397,-18.6845 1.224,-5.8497 2.2232,-11.5555 2.9137,-16.7796 0.6904,-5.2241 1.072,-9.9657 1.4536,-14.7075" transform="translate(3.6824353,-1984.8326)"/>
    <path d="m 359.36155,2657.9836 c 8.59122,-0.097 17.18244,-0.1932 25.05224,-0.3864 7.8698,-0.1932 15.01789,-0.483 22.6975,-1.0626 7.6796,-0.5796 15.89025,-1.4489 23.81133,-2.4149 7.92109,-0.966 15.55216,-2.0286 23.18346,-3.2361 7.6313,-1.2075 15.26236,-2.5598 23.28006,-4.0088 8.0177,-1.449 16.42153,-2.9945 24.05283,-4.6367 7.6313,-1.6422 14.4896,-3.3809 22.4107,-5.5543 7.92109,-2.1735 16.9045,-4.7816 25.93647,-7.4864 9.03197,-2.7048 18.11199,-5.5061 26.37117,-8.2108 8.25917,-2.7048 15.69706,-5.3129 23.18347,-8.1142 7.48641,-2.8014 15.02086,-5.7959 21.97598,-8.6455 6.95511,-2.8497 13.33041,-5.5544 20.76853,-8.6455 7.43813,-3.0912 15.93856,-6.5686 24.53584,-10.2877 8.59729,-3.719 17.29089,-7.6795 25.83987,-11.64 8.54898,-3.9606 16.95285,-7.921 25.35694,-11.8815 8.40409,-3.9606 16.80792,-7.921 26.41951,-12.606 9.61159,-4.6851 20.4303,-10.0944 29.26906,-14.6346 8.83877,-4.5401 15.69704,-8.2108 23.76305,-12.5094 8.066,-4.2986 17.33922,-9.225 25.88821,-14.0067 8.54898,-4.7816 16.37324,-9.4182 23.71474,-13.7168 7.3415,-4.2987 14.1998,-8.2591 20.86511,-12.1713 6.66532,-3.9123 13.13723,-7.7761 19.46444,-11.6884 6.3272,-3.9122 12.50936,-7.8727 19.18901,-12.2631 6.67965,-4.3905 13.85638,-9.2107 21.03329,-14.031" transform="translate(3.6824353,-1984.8326)"/>
    <path d="m 1539.2717,2245.3154 c -6.5552,-1.4796 -13.1104,-2.9592 -20.5656,-4.0732 -7.4552,-1.1139 -15.81,-1.8622 -24.2274,-2.4233 -8.4174,-0.5612 -16.8969,-0.9353 -24.8155,-1.1223 -7.9186,-0.1871 -15.2758,-0.1871 -23.5062,0.2494 -8.2303,0.4365 -17.3333,1.3094 -25.5636,2.1823 -8.2303,0.8729 -15.5876,1.7458 -23.4438,2.8681 -7.8562,1.1223 -16.211,2.494 -24.8155,4.0528 -8.6044,1.5588 -17.458,3.3046 -26.873,5.2375 -9.4151,1.9328 -19.391,4.0527 -29.8036,6.5468 -10.4126,2.494 -21.2614,5.3621 -31.8611,8.4173 -10.5997,3.0552 -20.9497,6.2973 -31.3623,9.7266 -10.4126,3.4293 -20.8873,7.0456 -32.0482,11.2854 -11.1608,4.2399 -23.0072,9.1032 -34.9786,14.216 -11.9714,5.1128 -24.0671,10.4748 -34.8538,15.5253 -10.7868,5.0504 -20.2639,9.789 -31.7365,15.65 -11.4726,5.861 -24.9401,12.8441 -36.1009,18.6427 -11.1608,5.7986 -20.0144,10.4125 -28.6812,15.1512 -8.6668,4.7387 -17.1463,9.6019 -26.3743,14.8394 -9.228,5.2375 -19.2038,10.8489 -28.61882,16.2735 -9.41503,5.4245 -18.26865,10.6619 -25.40926,14.9611 -7.14061,4.2992 -12.56774,7.66 -17.70863,11.0656 -5.14089,3.4056 -9.99497,6.8557 -14.84925,10.3059" transform="translate(3.6824353,-1984.8326)"/>
    <path d="m 1051.9193,2632.5917 c -5.1697,-7.4644 -10.3394,-14.9288 -15.293,-22.3705 -4.9536,-7.4418 -9.6908,-14.8605 -14.3389,-22.1901 -4.648,-7.3296 -9.2065,-14.5695 -13.4076,-21.3628 -4.2011,-6.7933 -8.0445,-13.1394 -12.06683,-19.8433 -4.02233,-6.7039 -8.2233,-13.7651 -12.3797,-20.6478 -4.15641,-6.8826 -8.26802,-13.5863 -12.23574,-19.8222 -3.96771,-6.2359 -7.79109,-12.0033 -10.56747,-16.3332 -2.77637,-4.33 -4.5052,-7.2216 -8.77039,-13.827 -4.2652,-6.6053 -11.06643,-16.9239 -17.86786,-27.2428" transform="translate(3.6824353,-1984.8326)"/>
    <path d="M 975.11207,2682.4851 C 903.93921,2576.9318 832.76635,2471.3786 761.59349,2365.8253" transform="translate(3.6824353,-1984.8326)"/>
    <path d="M 893.54376,2730.6846 C 810.84448,2611.9754 728.1452,2493.2662 645.44593,2374.5571" transform="translate(3.6824353,-1984.8326)"/>
    <path d="M 802.58693,2768.5686 C 721.44738,2655.7795 640.30788,2542.9905 559.16827,2430.2013" transform="translate(3.6824353,-1984.8326)"/>
    <path d="M 700.54579,2796.2113 C 629.00091,2687.7349 557.45598,2579.2584 485.9111,2470.7819" transform="translate(3.6824353,-1984.8326)"/>
    <path d="M 603.61782,2804.48 C 530.77671,2704.4575 457.93561,2604.435 385.09451,2504.4125" transform="translate(3.6824353,-1984.8326)"/>
    <path d="m 491.07111,2781.0519 c -51.19603,-75.826 -102.39207,-151.6521 -153.5881,-227.4781" transform="translate(3.6824353,-1984.8326)"/>
    <path d="m 1546.3034,2271.2109 c -24.4782,-41.5794 -48.9565,-83.1587 -73.4347,-124.7381" transform="translate(3.6824353,-1984.8326)"/>
    <path d="M 1548.9689,2349.996 C 1496.2459,2267.644 1443.523,2185.2921 1390.8,2102.9401" transform="translate(3.6824353,-1984.8326)"/>
    <path d="M 1480.5152,2378.5111 C 1414.9416,2281.0844 1349.368,2183.6577 1283.7944,2086.231" transform="translate(3.6824353,-1984.8326)"/>
    <path d="m 1396.0826,2412.5459 c -69.1709,-106.7016 -138.3417,-213.4031 -207.5125,-320.1047" transform="translate(3.6824353,-1984.8326)"/>
    <path d="M 1320.8133,2455.0895 C 1243.5649,2342.6038 1166.3165,2230.118 1089.0682,2117.6323" transform="translate(3.6824353,-1984.8326)"/>
    <path d="m 1235.0717,2508.7598 c -78.3238,-119.3401 -156.6475,-238.6802 -234.9713,-358.0203" transform="translate(3.6824353,-1984.8326)"/>
    <path d="M 1112.6772,2519.232 C 1047.9366,2411.4307 983.19601,2303.6294 918.45541,2195.8281" transform="translate(3.6824353,-1984.8326)"/>
    <path d="m 817.82943,2256.7624 c 32.17645,52.5824 64.35291,105.1647 96.5294,157.7471" transform="translate(3.6824353,-1984.8326)"/>
    <path d="m 338.90794,2580.7893 c 45.11554,-2.1655 98.30206,-4.7185 147.79359,-19.4622 49.49153,-14.7437 138.4194,-54.5272 195.08451,-85.5667 56.66511,-31.0395 94.56216,-59.3721 132.45922,-87.7047" transform="translate(3.6824353,-1984.8326)"/>
    <path d="m 855.39063,2357.1967 c 66.59054,-42.4086 133.17963,-84.8163 205.27577,-118.8341 72.0962,-34.0179 149.6916,-59.6424 211.9523,-72.2751 62.2608,-12.6326 109.179,-12.2717 144.6406,-8.3917 35.4616,3.88 59.4626,11.2789 83.464,18.6778" transform="translate(3.6824353,-1984.8326)"/>
    <path d="m 405.65298,2723.2458 c 32.49195,4.8848 64.98345,9.7695 98.93542,9.5201 33.95196,-0.2493 69.36247,-5.6326 113.73231,-16.6233 44.36983,-10.9907 97.69799,-27.5886 148.37916,-49.1579 50.68117,-21.5693 98.71425,-48.1096 139.09514,-71.1495 40.3809,-23.0399 73.10805,-42.5785 105.83589,-62.1175" transform="translate(3.6824353,-1984.8326)"/>
    <path d="m 1062.9207,2497.5706 c 39.5664,-24.5866 79.1329,-49.1731 122.0377,-72.3759 42.9048,-23.2028 89.1452,-45.0204 134.9813,-62.036 45.8362,-17.0155 91.2625,-29.2269 129.6085,-35.5772 38.346,-6.3503 69.6077,-6.8387 100.8701,-7.3272" transform="translate(3.6824353,-1984.8326)"/>
    <path d="m 1561.535,2232.9212 c 13.3849,12.7424 26.7695,25.4846 37.8524,36.8887 11.0829,11.4042 19.8633,21.4694 29.0722,32.0168 9.2089,10.5474 18.8458,21.5764 28.4829,32.6055" transform="translate(3.6824353,-1984.8326)"/>
    <path d="m 1578.2201,2302.9759 c 10.7143,9.7359 21.4286,19.4718 32.943,29.9615 11.5144,10.4897 23.8282,21.7328 34.6968,32.5479 10.8687,10.8151 20.2914,21.2015 30.5176,32.2843 10.2262,11.0829 21.2551,22.8613 32.1321,35.0422 10.877,12.1808 21.6013,24.7633 32.3258,37.3461" transform="translate(3.6824353,-1984.8326)"/>
    <path d="m 1577.0736,2356.534 c 7.8841,11.6928 15.7682,23.3857 22.3874,34.1043 6.6191,10.7186 11.9729,20.4626 17.2199,30.3675 5.2469,9.9049 10.3866,19.9702 15.9012,31.2136 5.5146,11.2434 11.4039,23.6644 17.3468,36.6747 5.943,13.0102 11.9393,26.6089 17.1326,38.8696 5.1934,12.2607 9.5836,23.1825 15.3124,37.9596 5.7288,14.7771 12.7959,33.4085 19.8631,52.0403" transform="translate(3.6824353,-1984.8326)"/>
    <path d="m 1557.5474,2421.5432 c 3.4708,10.261 6.9416,20.5221 10.1761,30.5783 3.2346,10.0563 6.2327,19.9074 8.9632,29.9194 2.7306,10.012 5.1934,20.1843 7.4421,30.464 2.2486,10.2797 4.2831,20.6662 6.2641,31.8026 1.981,11.1363 3.9084,23.0218 5.461,33.944 1.5527,10.9222 2.7305,20.8803 3.9619,31.2135 1.2315,10.3333 2.5164,21.041 3.4265,31.8561 0.9102,10.8151 1.4456,21.737 2.0345,32.9269 0.589,11.1898 1.2314,22.6471 1.8739,34.1046" transform="translate(3.6824353,-1984.8326)"/>
    <path d="m 1508.0076,2491.825 c 1.4593,8.5708 2.9187,17.1416 4.1838,26.4599 1.2651,9.3183 2.3359,19.3835 3.0319,30.0915 0.696,10.7081 1.0173,22.0582 1.1779,33.9976 0.1606,11.9395 0.1606,24.4675 -0.054,37.21 -0.2141,12.7426 -0.6425,25.6989 -1.392,37.1029 -0.7496,11.4041 -1.8203,21.2552 -3.7478,35.982 -1.9274,14.7268 -4.7114,34.3283 -7.4955,53.9302" transform="translate(3.6824353,-1984.8326)"/>
    <path d="m 1425.7208,2549.188 c -0.2372,16.3267 -0.4745,32.6534 -0.7537,45.2606 -0.2792,12.6073 -0.6005,21.4947 -1.6177,31.4531 -1.0173,9.9585 -2.7305,20.9873 -4.7115,31.5347 -1.981,10.5475 -4.2296,20.6128 -6.2642,28.965 -2.0345,8.3522 -3.8548,14.991 -6.6924,25.0566 -2.8377,10.0656 -6.6924,23.5573 -10.5473,37.0492" transform="translate(3.6824353,-1984.8326)"/>
    <path d="m 1331.1386,2576.9028 c -3.2964,27.0052 -6.5927,54.0098 -11.9352,78.4349 -5.3425,24.4252 -12.7309,46.2689 -20.1193,68.113" transform="translate(3.6824353,-1984.8326)"/>
    <path d="m 1244.014,2577.0164 c -5.7361,18.9363 -11.4723,37.8727 -17.8205,55.0507 -6.3482,17.1781 -13.3082,32.5972 -20.2683,48.0166" transform="translate(3.6824353,-1984.8326)"/>
    <path d="m 1138.7866,2550.625 c -4.8186,12.7424 -9.6371,25.4848 -14.2416,37.3707 -4.6044,11.8859 -8.9946,22.9148 -13.3848,33.944" transform="translate(3.6824353,-1984.8326)"/>
    <path d="m 1604.3738,2257.9201 c 1.3517,9.7266 2.7035,19.4533 3.5992,28.1781 0.8956,8.7248 1.3352,16.4475 1.7119,23.9506 0.3767,7.5032 0.6907,14.7865 0.2511,29.2906 -0.4395,14.5041 -1.6325,36.2278 -7.1893,60.1189 -5.5568,23.8911 -15.4768,49.9469 -29.8869,75.9101 -14.41,25.9633 -33.3083,51.8307 -58.1727,73.5556 -24.8643,21.7249 -55.6919,39.3048 -88.342,51.1091 -32.6501,11.8042 -67.1191,17.8316 -99.6751,19.1502 -32.5561,1.3186 -63.1951,-2.0719 -95.7197,-10.4228 -32.5247,-8.3509 -66.9309,-21.6614 -97.3207,-35.3807 -30.3898,-13.7193 -56.7594,-27.8459 -86.9609,-47.0907 -30.2015,-19.2448 -64.23162,-43.6059 -98.2625,-67.9675" transform="translate(3.6824353,-1984.8326)"/>
    <path d="m 1713.9406,2417.4598 c -1.0969,5.4846 -2.1938,10.9691 -8.1403,31.4642 -5.9465,20.4952 -16.7419,55.9987 -32.9937,88.0116 -16.2519,32.013 -37.9581,60.5313 -63.8513,85.7029 -25.8932,25.1715 -55.9703,46.9933 -88.0698,60.9646 -32.0994,13.9714 -66.2176,20.0907 -101.6079,21.101 -35.3903,1.0103 -72.0484,-3.0884 -106.0532,-11.8639 -34.0047,-8.7754 -65.3517,-22.2263 -97.4801,-37.9874 -32.1284,-15.7611 -65.0349,-33.8308 -95.835,-52.4206 -30.8002,-18.5898 -59.4916,-37.6982 -87.9252,-61.5131 -28.4335,-23.8149 -56.60602,-52.3338 -84.77907,-80.8532" transform="translate(3.6824353,-1984.8326)"/>
    <path d="m 272.45194,2627.8861 c -3.5335,-18.8077 -7.06694,-37.6152 -8.12082,-62.0524 -1.05387,-24.4373 0.37187,-54.5018 6.50914,-85.4362 6.13727,-30.9343 16.98532,-62.7346 32.76241,-90.4763 15.77709,-27.7416 36.4814,-51.4214 61.89835,-68.9343 25.41695,-17.5129 55.54357,-28.8569 88.27564,-36.141 32.73208,-7.2841 68.06574,-10.5075 103.27752,-9.3916 35.21177,1.1158 70.29752,6.5709 103.6185,15.6218 33.32099,9.0509 64.87333,21.6966 92.708,34.6841 27.83468,12.9874 51.94877,26.3152 78.32639,41.9992 26.37762,15.684 55.01704,33.7231 83.65706,51.7626" transform="translate(3.6824353,-1984.8326)"/>
    <path d="m 159.81143,2455.0096 c 0.42158,-14.9779 0.84316,-29.9556 5.71868,-53.5919 4.87551,-23.6363 14.20437,-55.9285 33.74396,-84.4713 19.53959,-28.5428 49.28766,-53.3329 79.85295,-73.3618 30.56528,-20.0289 61.94419,-35.2943 95.54317,-44.2649 33.59898,-8.9706 69.41402,-11.6452 103.14347,-9.8837 33.72945,1.7615 65.36932,7.9589 97.53302,17.8103 32.1637,9.8513 64.84736,23.3553 96.48911,39.4045 31.64175,16.0492 62.23844,34.6421 88.92161,51.8003 26.68316,17.1581 49.45084,32.8802 74.14447,51.8326 24.69364,18.9525 51.31076,41.1334 77.92846,63.3148" transform="translate(3.6824353,-1984.8326)"/>
    <path d="m 323.19628,2635.8453 c -19.32109,-20.4895 -38.64199,-40.9788 -59.03266,-63.1031 -20.39067,-22.1243 -41.85067,-45.8831 -62.32913,-81.694 -20.47845,-35.8108 -39.97405,-83.6715 -59.46993,-131.5329" transform="translate(3.6824353,-1984.8326)"/>
    <path d="m 312.1395,2555.4037 c -13.64982,-24.0744 -27.29947,-48.1485 -41.10052,-74.2846 -13.80105,-26.1361 -27.75324,-54.3337 -40.54475,-93.4141 -12.79151,-39.0804 -24.42159,-89.0413 -36.05183,-139.0029" transform="translate(3.6824353,-1984.8326)"/>
    <path d="m 331.36906,2467.4365 c -15.68513,-51.5133 -31.36996,-103.0256 -39.20113,-150.9802 -7.83118,-47.9547 -7.8081,-92.3479 -7.78502,-136.7422" transform="translate(3.6824353,-1984.8326)"/>
    <path d="m 375.7002,2392.6431 c -5.69617,-44.0008 -11.39224,-88.0009 -10.03009,-129.1546 1.36215,-41.1536 9.78242,-79.4576 18.20287,-117.7624" transform="translate(3.6824353,-1984.8326)"/>
    <path d="m 459.16162,2328.4992 c 2.31149,-31.9481 4.62294,-63.8956 10.60818,-94.5235 5.98524,-30.6279 15.64381,-59.9338 25.30252,-89.2401" transform="translate(3.6824353,-1984.8326)"/>
    <path d="m 553.59485,2305.3406 c 3.52487,-21.4218 7.04965,-42.843 12.7335,-65.1119 5.68385,-22.2689 13.52622,-45.3833 21.3688,-68.4983" transform="translate(3.6824353,-1984.8326)"/>
    <path d="m 656.54663,2315.4946 c 3.98079,-15.4137 7.96158,-30.8273 12.41946,-46.4501 4.45787,-15.6228 9.39286,-31.4548 14.32782,-47.2867" transform="translate(3.6824353,-1984.8326)"/>
    <path d="m 752.6387,2344.1018 c 2.38858,-9.7429 4.77717,-19.4858 7.80857,-29.7242 3.0314,-10.2384 6.70559,-20.9723 10.37979,-31.7061" transform="translate(3.6824353,-1984.8326)"/>
  </g>
  <text x="200" y="295" font-family="Georgia, 'Times New Roman', serif" font-size="62" font-weight="700" text-anchor="middle" fill="white" letter-spacing="-1">Flair<tspan fill="#a855f7">Ops</tspan></text>
  <text x="200" y="328" font-family="'Courier New', monospace" font-size="14" text-anchor="middle" fill="#6b7280" letter-spacing="3">DEVOPS · CLOUD · AUTOMATION</text>
  <circle cx="132" cy="358" r="3.5" fill="#a855f7" opacity="0.8"/>
  <line x1="140" y1="358" x2="196" y2="358" stroke="#a855f7" stroke-width="1.5" opacity="0.4"/>
  <circle cx="200" cy="358" r="3.5" fill="#a855f7" opacity="1"/>
  <line x1="204" y1="358" x2="260" y2="358" stroke="#a855f7" stroke-width="1.5" opacity="0.4"/>
  <circle cx="268" cy="358" r="3.5" fill="#a855f7" opacity="0.8"/>
</svg>